<svg version="1.1" xmlns="http://www.w3.org/2000/svg" xmlns:xlink="http://www.w3.org/1999/xlink" width="512px" height="512px" viewBox="0,0,256,256"><g fill-opacity="0" fill="#dddddd" fill-rule="nonzero" stroke="none" stroke-width="1" stroke-linecap="butt" stroke-linejoin="miter" stroke-miterlimit="10" stroke-dasharray="" stroke-dashoffset="0" font-family="none" font-weight="none" font-size="none" text-anchor="none" style="mix-blend-mode: normal"><path d="M0,256v-256h256v256z" id="bgRectangle"></path></g><g fill="none" fill-rule="nonzero" stroke="none" stroke-width="none" stroke-linecap="butt" stroke-linejoin="none" stroke-miterlimit="10" stroke-dasharray="" stroke-dashoffset="0" font-family="none" font-weight="none" font-size="none" text-anchor="none" style="mix-blend-mode: normal"><path transform="translate(-0.00011,0.00023) scale(0.5,0.5)" d="M504,255.531c0.253,136.64 -111.18,248.372 -247.82,248.468c-59.015,0.042 -113.223,-20.53 -155.822,-54.911c-11.077,-8.94 -11.905,-25.541 -1.839,-35.607l11.267,-11.267c8.609,-8.609 22.353,-9.551 31.891,-1.984c31.385,24.905 71.104,39.77 114.323,39.77c101.705,0 184,-82.311 184,-184c0,-101.705 -82.311,-184 -184,-184c-48.814,0 -93.149,18.969 -126.068,49.932l50.754,50.754c10.08,10.08 2.941,27.314 -11.313,27.314h-145.373c-8.837,0 -16,-7.163 -16,-16v-145.373c0,-14.254 17.234,-21.393 27.314,-11.314l49.372,49.372c44.523,-42.549 104.866,-68.685 171.314,-68.685c136.81,0 247.747,110.78 248,247.531zM289.409,338.525l-65.409,-50.874v-135.651c0,-13.255 10.745,-24 24,-24h16c13.255,0 24,10.745 24,24v104.349l40.701,31.657c10.463,8.137 12.348,23.216 4.21,33.679l-9.823,12.63c-8.138,10.463 -23.216,12.347 -33.679,4.21z" id="strokeMainSVG" fill-opacity="0" fill="#000000" stroke-opacity="0" stroke="#000000" stroke-width="20" stroke-linejoin="round"></path><g transform="translate(-0.00011,0.00023) scale(0.5,0.5)" fill="#000000" stroke="none" stroke-width="1" stroke-linejoin="miter"><path d="M504,255.531c0.253,136.64 -111.18,248.372 -247.82,248.468c-59.015,0.042 -113.223,-20.53 -155.822,-54.911c-11.077,-8.94 -11.905,-25.541 -1.839,-35.607l11.267,-11.267c8.609,-8.609 22.353,-9.551 31.891,-1.984c31.385,24.905 71.104,39.77 114.323,39.77c101.705,0 184,-82.311 184,-184c0,-101.705 -82.311,-184 -184,-184c-48.814,0 -93.149,18.969 -126.068,49.932l50.754,50.754c10.08,10.08 2.941,27.314 -11.313,27.314h-145.373c-8.837,0 -16,-7.163 -16,-16v-145.373c0,-14.254 17.234,-21.393 27.314,-11.314l49.372,49.372c44.523,-42.549 104.866,-68.685 171.314,-68.685c136.81,0 247.747,110.78 248,247.531zM323.088,334.315l9.823,-12.63c8.138,-10.463 6.253,-25.542 -4.21,-33.679l-40.701,-31.657v-104.349c0,-13.255 -10.745,-24 -24,-24h-16c-13.255,0 -24,10.745 -24,24v135.651l65.409,50.874c10.463,8.137 25.541,6.253 33.679,-4.21z"></path></g></g></svg>